<?xml version="1.0" encoding="UTF-8" standalone="no"?>
<!-- Creator: CorelDRAW -->

<svg
   xmlns:dc="http://purl.org/dc/elements/1.1/"
   xmlns:cc="http://creativecommons.org/ns#"
   xmlns:rdf="http://www.w3.org/1999/02/22-rdf-syntax-ns#"
   xmlns:svg="http://www.w3.org/2000/svg"
   xmlns="http://www.w3.org/2000/svg"
   xmlns:sodipodi="http://sodipodi.sourceforge.net/DTD/sodipodi-0.dtd"
   xmlns:inkscape="http://www.inkscape.org/namespaces/inkscape"
   xml:space="preserve"
   width="400px"
   height="400px"
   style="shape-rendering:geometricPrecision; text-rendering:geometricPrecision; image-rendering:optimizeQuality; fill-rule:evenodd; clip-rule:evenodd"
   viewBox="0 0 400 400"
   id="svg3003"
   version="1.1"
   inkscape:version="0.48.1 "
   sodipodi:docname="Aysa_logo.svg"><metadata
   id="metadata3019"><rdf:RDF><cc:Work
       rdf:about=""><dc:format>image/svg+xml</dc:format><dc:type
         rdf:resource="http://purl.org/dc/dcmitype/StillImage" /></cc:Work></rdf:RDF></metadata><sodipodi:namedview
   pagecolor="#ffffff"
   bordercolor="#666666"
   borderopacity="1"
   objecttolerance="10"
   gridtolerance="10"
   guidetolerance="10"
   inkscape:pageopacity="0"
   inkscape:pageshadow="2"
   inkscape:window-width="1366"
   inkscape:window-height="706"
   id="namedview3017"
   showgrid="false"
   showguides="true"
   inkscape:guide-bbox="true"
   inkscape:zoom="0.91393551"
   inkscape:cx="200"
   inkscape:cy="200"
   inkscape:window-x="-8"
   inkscape:window-y="-8"
   inkscape:window-maximized="1"
   inkscape:current-layer="svg3003"
   inkscape:snap-global="false" />
 <defs
   id="defs3005">
  <style
   type="text/css"
   id="style3007">
   
    .fil0 {fill:#0055A6}
    .fil1 {fill:white;fill-rule:nonzero}
   
  </style>
 
  
  
 
   
   
  </defs>
 
<g
   id="g3822"
   transform="matrix(6.3515842,0,0,6.3515842,846.10535,-104.70313)"><rect
     ry="2.3999622"
     rx="2.6837599"
     y="17.935434"
     x="-130.84012"
     height="59.498074"
     width="58.646255"
     id="rect3800"
     style="fill:#0055a6;fill-opacity:1;stroke:none" /><g
     style="fill:#fffafa"
     transform="matrix(0.16358606,0,0,0.16358606,-134.77226,14.164862)"
     id="g3802"><g
       style="fill:#fffafa"
       id="g3013">
    <path
   id="_164142520"
   class="fil1"
   d="m 111.389,307.851 c -4.62875,3.92009 -9.06734,6.68387 -13.317,8.31143 -4.27324,1.60748 -8.85592,2.41063 -13.7433,2.41063 -8.07403,0 -14.2607,-1.96063 -18.6071,-5.90434 -4.32048,-3.94371 -6.49253,-8.99647 -6.49253,-15.1122 0,-3.61182 0.803151,-6.89529 2.45552,-9.86931 1.62992,-2.9752 3.77835,-5.36103 6.42403,-7.15395 2.66693,-1.79528 5.64214,-3.16654 8.97049,-4.08544 2.43426,-0.6378 6.11576,-1.27677 11.0516,-1.86496 10.0595,-1.20473 17.4733,-2.62205 22.2201,-4.29804 0.0472,-1.70079 0.0709,-2.78623 0.0709,-3.23623 0,-5.07639 -1.1811,-8.66458 -3.54331,-10.7197 -3.16418,-2.83347 -7.908684,-4.22599 -14.166204,-4.22599 -5.85592,0 -10.1764,1.01575 -12.9874,3.06969 -2.78623,2.05394 -4.84135,5.68938 -6.18663,10.9075 l -12.1607,-1.67481 c 1.11024,-5.1945 2.92796,-9.42167 5.45434,-12.6083 2.52756,-3.21379 6.21025,-5.69174 11.0044,-7.41616 4.79292,-1.72205 10.3418,-2.59607 16.6689,-2.59607 6.281114,0 11.357504,0.75591 15.277604,2.2193 3.92009,1.48701 6.80198,3.32835 8.66695,5.57127 1.84016,2.24528 3.11694,5.05395 3.87166,8.47797 0.40157,2.12599 0.61417,5.94922 0.61417,11.4756 l 0,16.5992 c 0,11.5937 0.25984,18.913 0.80315,21.9591 0.51851,3.06969 1.5815,6.02127 3.14056,8.8323 l -13.011,0 c -1.27441,-2.57481 -2.12481,-5.59607 -2.47914,-9.06852 z m -1.03819,-27.815 c -4.53544,1.86615 -11.3103,3.42284 -20.3304,4.72324 -5.12481,0.7311 -8.76143,1.55788 -10.8626,2.47914 -2.12599,0.92126 -3.77717,2.26654 -4.90985,4.06064 -1.15866,1.77166 -1.74803,3.73229 -1.74803,5.90434 0,3.32835 1.27441,6.09214 3.77835,8.31143 2.50158,2.19567 6.18663,3.30473 11.0256,3.30473 4.7941,0 9.06734,-1.03819 12.7985,-3.14056 3.72993,-2.10119 6.49371,-4.9819 8.24057,-8.61734 1.34646,-2.80985 2.00788,-6.96616 2.00788,-12.4441 l 0,-4.58151 z m 31.3347,65.1722 -1.39488,-11.6894 c 2.74016,0.73229 5.10119,1.10906 7.13151,1.10906 2.7626,0 4.9819,-0.47126 6.63545,-1.39252 1.67599,-0.92126 3.02245,-2.19567 4.08544,-3.87284 0.80197,-1.22717 2.05394,-4.32048 3.80079,-9.25632 0.2374,-0.70866 0.61417,-1.70079 1.10906,-3.04607 l -27.8623,-73.6005 13.4114,0 15.3012,42.5269 c 1.96063,5.4071 3.75473,11.0752 5.31261,17.0244 1.44095,-5.713 3.14056,-11.2866 5.12363,-16.741 l 15.704,-42.8103 12.4429,0 -27.9331,74.7108 c -2.99882,8.07521 -5.33741,13.624 -6.9886,16.6701 -2.2193,4.10788 -4.74686,7.10671 -7.60513,9.0201 -2.87953,1.91221 -6.27993,2.88071 -10.2473,2.88071 -2.40827,0 -5.07757,-0.5185 -8.02679,-1.53307 z m 66.4206,-50.2241 12.3024,-1.93701 c 0.68504,4.93584 2.62087,8.71183 5.78505,11.3575 3.14056,2.61969 7.55553,3.94371 13.2473,3.94371 5.713,0 9.96262,-1.17992 12.7264,-3.49607 2.7626,-2.33623 4.15513,-5.07639 4.15513,-8.19332 0,-2.83229 -1.22717,-5.02914 -3.68268,-6.65789 -1.70079,-1.10906 -5.95041,-2.50394 -12.7276,-4.20237 -9.11458,-2.31615 -15.4666,-4.29686 -18.9839,-5.99765 -3.51969,-1.67717 -6.21025,-4.01457 -8.02797,-6.98978 -1.8189,-2.9752 -2.74016,-6.25749 -2.74016,-9.84805 0,-3.28111 0.75591,-6.30356 2.26654,-9.0886 1.48819,-2.80985 3.54331,-5.12363 6.11576,-6.96616 1.93583,-1.41733 4.58151,-2.64567 7.91104,-3.63662 3.35198,-0.99213 6.94253,-1.48701 10.7681,-1.48701 5.76025,0 10.813,0.8504 15.1807,2.50158 4.37009,1.65355 7.58151,3.89646 9.65907,6.73112 2.07756,2.85709 3.49371,6.63427 4.27324,11.3811 l -12.1607,1.67717 c -0.56575,-3.77953 -2.17205,-6.73112 -4.81773,-8.85592 -2.64331,-2.12481 -6.39804,-3.1878 -11.2394,-3.1878 -5.713,0 -9.79844,0.94488 -12.2292,2.83465 -2.4567,1.88741 -3.68505,4.10788 -3.68505,6.63427 0,1.62992 0.5185,3.06969 1.53425,4.36773 1.01575,1.34646 2.59843,2.43308 4.77048,3.33072 1.25079,0.44764 4.91221,1.51063 11.0044,3.16418 8.80632,2.35985 14.9457,4.27324 18.417,5.78387 3.49371,1.48819 6.23387,3.68387 8.21695,6.54096 1.98426,2.85591 2.97638,6.39923 2.97638,10.6488 0,4.15631 -1.22953,8.05277 -3.6378,11.7343 -2.43071,3.66142 -5.92678,6.49489 -10.4835,8.50277 -4.55788,2.0067 -9.72876,2.99882 -15.489,2.99882 -9.5634,0 -16.8378,-1.98426 -21.841,-5.95159 -5.0067,-3.96615 -8.1945,-9.84687 -9.56459,-17.6374 z m 123.754,12.867 c -4.62875,3.92009 -9.06734,6.68387 -13.3181,8.31143 -4.27324,1.60748 -8.85474,2.41063 -13.7433,2.41063 -8.07403,0 -14.2607,-1.96063 -18.6059,-5.90434 -4.32048,-3.94371 -6.49253,-8.99647 -6.49253,-15.1122 0,-3.61182 0.80315,-6.89529 2.45434,-9.86931 1.62992,-2.9752 3.77835,-5.36103 6.42403,-7.15395 2.66693,-1.79528 5.64214,-3.16654 8.97167,-4.08544 2.43308,-0.6378 6.11576,-1.27677 11.0504,-1.86496 10.0595,-1.20473 17.4733,-2.62205 22.2201,-4.29804 0.0472,-1.70079 0.0709,-2.78623 0.0709,-3.23623 0,-5.07639 -1.17992,-8.66458 -3.54331,-10.7197 -3.163,-2.83347 -7.90868,-4.22599 -14.165,-4.22599 -5.8571,0 -10.1776,1.01575 -12.9886,3.06969 -2.78623,2.05394 -4.84017,5.68938 -6.18545,10.9075 l -12.1607,-1.67481 c 1.10906,-5.1945 2.92796,-9.42167 5.45316,-12.6083 2.52756,-3.21379 6.21025,-5.69174 11.0044,-7.41616 4.7941,-1.72205 10.3418,-2.59607 16.6701,-2.59607 6.27993,0 11.3575,0.75591 15.2776,2.2193 3.92009,1.48701 6.8008,3.32835 8.66695,5.57127 1.84016,2.24528 3.11575,5.05395 3.87048,8.47797 0.40275,2.12599 0.61417,5.94922 0.61417,11.4756 l 0,16.5992 c 0,11.5937 0.25984,18.913 0.80433,21.9591 0.51851,3.06969 1.58032,6.02127 3.13938,8.8323 l -13.011,0 c -1.27441,-2.57481 -2.12481,-5.59607 -2.47796,-9.06852 z m -1.03937,-27.815 c -4.53426,1.86615 -11.3103,3.42284 -20.3304,4.72324 -5.12363,0.7311 -8.76143,1.55788 -10.8626,2.47914 -2.12481,0.92126 -3.77717,2.26654 -4.90985,4.06064 -1.15866,1.77166 -1.74803,3.73229 -1.74803,5.90434 0,3.32835 1.27441,6.09214 3.77835,8.31143 2.50276,2.19567 6.18663,3.30473 11.0256,3.30473 4.7941,0 9.06734,-1.03819 12.7996,-3.14056 3.72875,-2.10119 6.49253,-4.9819 8.24057,-8.61734 1.34528,-2.80985 2.0067,-6.96616 2.0067,-12.4441 l 0,-4.58151 z"
   inkscape:connector-curvature="0"
   style="fill:#fffafa;fill-rule:nonzero" />
    <path
   id="_164142448"
   class="fil1"
   d="m 66.0072,353.971 -4.49883,-10.5496 c 4.31812,-5.55001 9.9697,-8.31143 16.9784,-8.31143 2.46024,0 5.0256,0.40158 7.6949,1.20473 2.69056,0.80315 6.52797,2.40709 11.4933,4.81536 2.81575,1.34764 4.92166,2.22166 6.32009,2.62205 1.41733,0.42402 2.83583,0.6378 4.25316,0.6378 2.64922,0 5.44844,-0.90827 8.28663,-2.71536 2.83347,-1.80237 2.41182,-1.51772 3.73347,-2.52402 l 3.75001,10.4103 c -2.60788,2.76142 -5.2571,4.7693 -7.90631,6.02127 -2.6693,1.25197 -5.67285,1.86496 -9.03073,1.86496 -2.44134,0 -4.77639,-0.30709 -6.98742,-0.96851 -2.21103,-0.63661 -5.73544,-2.17205 -10.5744,-4.62757 -4.81891,-2.4567 -8.84411,-3.66024 -12.0567,-3.66024 -2.60552,0 -5.13781,0.48544 -7.36183,1.88859 -1.76811,1.11496 -1.9063,1.63819 -4.09371,3.89174 z"
   inkscape:connector-curvature="0"
   style="fill:#fffafa;fill-rule:nonzero" />
   </g></g></g></svg>